# xmcd
#
# Track frame offsets:
#	150
#	12760
#	25787
#	42978
#	58609
#	76502
#	88701
#	104491
#	120901
#	138952
#	151593
#	171436
#
# Disc length: 2534 seconds
#
# Revision: 1
# Processed by: cddbd v1.5.1PL0 Copyright (c) Steve Scherf et al.
# Submitted via: audiograbber 1.81.03
#
DISCID=8209e40c
DTITLE=George Baker - Una Paloma Blanca
DYEAR=1900
DGENRE=
TTITLE0=Una Paloma Blanca
TTITLE1=Morning Sky
TTITLE2=Drink Drink Drink
TTITLE3=Sing A Song Of Love
TTITLE4=Mi Amor
TTITLE5=Beautiful Rose
TTITLE6=Canta Libre
TTITLE7=Wonder
TTITLE8=Before The Next Teardrop Falls
TTITLE9=I'm On My Way
TTITLE10=Look For The Sun
TTITLE11=Send Me The Pillow
EXTD=
EXTT0=
EXTT1=
EXTT2=
EXTT3=
EXTT4=
EXTT5=
EXTT6=
EXTT7=
EXTT8=
EXTT9=
EXTT10=
EXTT11=
PLAYORDER=
